<?xml version="1.0" encoding="UTF-8" standalone="no"?>
<svg width="20px" height="20px" viewBox="0 0 20 20" version="1.1" xmlns="http://www.w3.org/2000/svg" xmlns:xlink="http://www.w3.org/1999/xlink" xmlns:sketch="http://www.bohemiancoding.com/sketch/ns">
    <!-- Generator: Sketch 3.4 (15575) - http://www.bohemiancoding.com/sketch -->
    <title>instagram</title>
    <desc>Created with Sketch.</desc>
    <defs></defs>
    <g id="Home" stroke="none" stroke-width="1" fill="none" fill-rule="evenodd" sketch:type="MSPage">
        <g id="關於我" sketch:type="MSArtboardGroup" transform="translate(-18.000000, -355.000000)">
            <g id="instagram" sketch:type="MSLayerGroup" transform="translate(18.000000, 355.000000)">
                <rect id="Rectangle-path" fill-opacity="0.890000045" fill="#000000" sketch:type="MSShapeGroup" x="15" y="3" width="2" height="2"></rect>
                <path d="M18,0 L2,0 C0.9,0 0,0.9 0,2 L0,18 C0,19.1 0.9,20 2,20 L18,20 C19.1,20 20,19.1 20,18 L20,2 C20,0.9 19.1,0 18,0 L18,0 Z M18,6 L12,6 C13.5,6.7 14.5,8.2 14.5,10 C14.5,12.5 12.5,14.5 10,14.5 C7.5,14.5 5.5,12.5 5.5,10 C5.5,8.2 6.5,6.7 8,6 L2,6 L2,2 L18,2 L18,6 L18,6 Z" id="Shape" fill-opacity="0.890000045" fill="#000000" sketch:type="MSShapeGroup"></path>
                <circle id="Oval" stroke="#000000" stroke-width="2" sketch:type="MSShapeGroup" cx="10" cy="10" r="5"></circle>
                <path d="M10,8 C9.8,8 9.6,8 9.4,8.1 C9.7,8.3 10,8.6 10,9 C10,9.6 9.6,10 9,10 C8.6,10 8.3,9.8 8.1,9.4 C8,9.6 8,9.8 8,10 C8,11.1 8.9,12 10,12 C11.1,12 12,11.1 12,10 C12,8.9 11.1,8 10,8 L10,8 Z" id="Shape" fill-opacity="0.939999998" fill="#000000" sketch:type="MSShapeGroup"></path>
            </g>
        </g>
    </g>
</svg>