<?xml version="1.0" encoding="UTF-8" standalone="no"?>
<svg width="20px" height="20px" viewBox="0 0 20 20" version="1.1" xmlns="http://www.w3.org/2000/svg" xmlns:xlink="http://www.w3.org/1999/xlink" xmlns:sketch="http://www.bohemiancoding.com/sketch/ns">
    <!-- Generator: Sketch 3.4 (15575) - http://www.bohemiancoding.com/sketch -->
    <title>facebook</title>
    <desc>Created with Sketch.</desc>
    <defs></defs>
    <g id="Home" stroke="none" stroke-width="1" fill="none" fill-rule="evenodd" sketch:type="MSPage">
        <g id="關於我" sketch:type="MSArtboardGroup" transform="translate(-18.000000, -306.000000)" fill="#000000" opacity="0.87">
            <path d="M36,306 L20,306 C18.9,306 18,306.9 18,308 L18,324 C18,325.1 18.9,326 20,326 L36,326 C37.1,326 38,325.1 38,324 L38,308 C38,306.9 37.1,306 36,306 L36,306 Z M34.4,311.4 L33,311.4 C32.1,311.4 32,311.7 32,312.4 L32,313.7 L34.1,313.7 L34,316 L32.1,316 L32.1,323 L28.9,323 L28.9,316 L27.7,316 L27.7,313.6 L28.9,313.6 L28.9,312.1 C28.9,310.1 29.7,309 32,309 L34.4,309 L34.4,311.4 L34.4,311.4 Z" id="facebook" sketch:type="MSShapeGroup"></path>
        </g>
    </g>
</svg>