<?xml version="1.0" encoding="UTF-8" standalone="no"?>
<svg width="591px" height="239px" viewBox="0 0 591 239" version="1.1" xmlns="http://www.w3.org/2000/svg" xmlns:xlink="http://www.w3.org/1999/xlink" xmlns:sketch="http://www.bohemiancoding.com/sketch/ns">
    <!-- Generator: Sketch 3.3.3 (12072) - http://www.bohemiancoding.com/sketch -->
    <title>solda-logo</title>
    <desc>Created with Sketch.</desc>
    <defs></defs>
    <g id="Page-1" stroke="none" stroke-width="1" fill="none" fill-rule="evenodd" sketch:type="MSPage">
        <path d="M154.591117,101.833835 C154.591117,84.6886972 138.902585,76.9985985 129.033993,73.0905156 C119.03888,69.0563655 115.243267,65.5264841 115.243267,60.861998 C115.243267,57.4581838 118.659318,54.4325712 123.214053,54.4325712 C130.931799,54.4325712 140.167789,61.3662668 141.306473,61.9966027 C142.445157,62.8790731 144.722525,61.7444684 145.608167,60.3577292 L152.060709,50.6505555 C152.566791,49.7680852 152.819831,47.4988757 151.301586,46.6164054 C147.505974,43.8429272 137.38434,37.161366 124.226217,37.161366 C104.742072,37.161366 95,49.7680852 95,62.2487371 C95,77.3768001 108.664205,85.8233019 119.544961,90.1095864 C128.14835,93.5134006 132.576564,97.5475507 132.576564,102.842373 C132.576564,107.254724 128.907472,110.406404 123.846655,110.406404 C115.496308,110.406404 106.386838,103.724843 105.880756,103.472709 C104.995113,102.842373 102.591225,102.590238 101.579062,104.229112 L95.6326021,114.692689 C94.6204387,116.457629 95,116.961898 96.2652042,118.22257 C99.1751738,121.122116 108.284644,127.929744 124.732298,127.929744 C143.3308,127.929744 154.591117,114.818756 154.591117,101.833835 L154.591117,101.833835 L154.591117,101.833835 Z M269.997266,127.929744 L317.792789,127.929744 C319.191062,127.929744 320.207988,126.783018 320.207988,125.508878 L320.207988,111.620752 C320.207988,110.346612 319.191062,109.199886 317.792789,109.199886 L287.53924,109.199886 L287.53924,41.1608124 C287.53924,39.8866725 286.395198,38.7399465 285.124041,38.7399465 L269.997266,38.7399465 C268.598993,38.7399465 267.582067,39.8866725 267.582067,41.1608124 L267.582067,125.508878 C267.582067,126.783018 268.598993,127.929744 269.997266,127.929744 L269.997266,127.929744 L269.997266,127.929744 Z M334.089142,127.929744 L364.894067,127.929744 C389.260258,127.929744 409.207709,107.925746 409.207709,83.2074312 C409.207709,58.7439439 389.260258,38.7399465 364.894067,38.7399465 L334.089142,38.7399465 C332.826645,38.7399465 331.816648,39.8866725 331.816648,41.1608124 L331.816648,125.508878 C331.816648,126.783018 332.826645,127.929744 334.089142,127.929744 L334.089142,127.929744 L334.089142,127.929744 Z M351.164413,57.6829123 L363.419327,57.6829123 C377.844383,57.6829123 388.312122,68.7836462 388.312122,82.8778364 C388.312122,97.096754 377.844383,108.197488 363.419327,108.197488 L351.164413,108.197488 L351.164413,57.6829123 L351.164413,57.6829123 Z M494.749229,124.663694 L455.57531,40.1218155 C455.199841,39.3680989 454.323747,38.7400017 453.447653,38.7400017 L452.19609,38.7400017 C451.319996,38.7400017 450.443902,39.3680989 450.068433,40.1218155 L410.894514,124.663694 C410.143576,126.296747 411.144827,127.929799 413.022171,127.929799 L492.621572,127.929799 C494.498916,127.929799 495.500167,126.296747 494.749229,124.663694 L494.749229,124.663694 L494.749229,124.663694 Z M452.413146,76.4000015 L452.549161,76.4000015 L469.261941,112.356557 L435.836381,112.356557 L452.413146,76.4000015 L452.413146,76.4000015 Z M162.344691,83.1277778 C162.344691,108.683333 182.240672,129 207.267064,129 C232.293455,129 252.314568,108.683333 252.314568,83.1277778 C252.314568,57.5722222 232.293455,37 207.267064,37 C182.240672,37 162.344691,57.5722222 162.344691,83.1277778 L162.344691,83.1277778 L162.344691,83.1277778 Z M182.365804,83.1277778 C182.365804,69.0722222 193.62768,57.4444444 207.267064,57.4444444 C221.031579,57.4444444 232.293455,69.0722222 232.293455,83.1277778 C232.293455,97.0555556 221.031579,108.555556 207.267064,108.555556 C193.62768,108.555556 182.365804,97.0555556 182.365804,83.1277778 L182.365804,83.1277778 L182.365804,83.1277778 Z" id="solda-logo" fill="#FFFFFF" sketch:type="MSShapeGroup"></path>
    </g>
</svg>