<?xml version="1.0" encoding="utf-8"?>
<!-- Generator: Adobe Illustrator 15.0.0, SVG Export Plug-In . SVG Version: 6.00 Build 0)  -->
<!DOCTYPE svg PUBLIC "-//W3C//DTD SVG 1.1//EN" "http://www.w3.org/Graphics/SVG/1.1/DTD/svg11.dtd">
<svg version="1.1" id="Слой_1" xmlns="http://www.w3.org/2000/svg" xmlns:xlink="http://www.w3.org/1999/xlink" x="0px" y="0px"
	 width="48px" height="48px" viewBox="0 0 48 48" enable-background="new 0 0 48 48" xml:space="preserve">
<g>
	<path fill="#546E7A" d="M37.292,42h-2.584C33.767,42,33,41.233,33,40.292v-2.417h6v2.417C39,41.233,38.233,42,37.292,42z"/>
	<path fill="#546E7A" d="M13.375,42h-2.666C9.767,42,9,41.233,9,40.292v-2.417h6.083v2.417C15.083,41.233,14.316,42,13.375,42z"/>
</g>
<path fill="#CFD8DC" d="M39.583,40H8.416C7.084,40,6,38.999,6,37.666v-27.25C6,9.084,7.084,8,8.416,8h31.167
	C40.916,8,42,9.084,42,10.416v27.25C42,38.999,40.916,40,39.583,40z"/>
<rect x="6" y="15" fill="#90A4AE" width="36" height="2"/>
<circle fill="#FF1744" cx="36.5" cy="11.5" r="1.5"/>
<g>
	<path fill="#37474F" d="M38,36H10V20h28V36z"/>
	<circle fill="#37474F" cx="11.5" cy="11.5" r="1.5"/>
	<circle fill="#37474F" cx="15.5" cy="11.5" r="1.5"/>
	<circle fill="#37474F" cx="19.5" cy="11.5" r="1.5"/>
	<circle fill="#37474F" cx="23.5" cy="11.5" r="1.5"/>
	<path fill="#37474F" d="M22.167,8V7.708C22.167,6.767,21.4,6,20.458,6h-8.5c-0.942,0-1.708,0.767-1.708,1.708V8H22.167z"/>
	<path fill="#37474F" d="M37.75,8V7.708C37.75,6.767,36.983,6,36.042,6h-6.375c-0.942,0-1.709,0.767-1.709,1.708V8H37.75z"/>
</g>
</svg>
