<?xml version="1.0" encoding="utf-8"?>
<!-- Generator: Adobe Illustrator 15.0.0, SVG Export Plug-In . SVG Version: 6.00 Build 0)  -->
<!DOCTYPE svg PUBLIC "-//W3C//DTD SVG 1.1//EN" "http://www.w3.org/Graphics/SVG/1.1/DTD/svg11.dtd">
<svg version="1.1" id="Слой_1" xmlns="http://www.w3.org/2000/svg" xmlns:xlink="http://www.w3.org/1999/xlink" x="0px" y="0px"
	 width="48px" height="48px" viewBox="0 0 48 48" enable-background="new 0 0 48 48" xml:space="preserve">
<path fill="#E91E63" d="M34,22h-0.838C31.619,18.469,28.1,16,24,16s-7.619,2.469-9.162,6H14c-4.418,0-8,7-8,12s3.582,8,8,8h20
	c4.418,0,8-3,8-8S38.418,22,34,22z"/>
<g>
	<circle fill="#FF9800" cx="22" cy="8" r="2"/>
	<circle fill="#FF9800" cx="26" cy="8" r="2"/>
</g>
<path fill="#AD1457" d="M33,23c0-4.963-4.037-9-9-9s-9,4.037-9,9l-2,2c0,0,0,0,1,0c4,0,3.934-2.198,4.078-2.968
	C18.543,19.182,21.021,17,24,17s5.457,2.182,5.922,5.032C30.066,22.802,30,25,34,25c1,0,1,0,1,0L33,23z"/>
<path fill="#FFC107" d="M24,10c-7.168,0-13,5.832-13,13c0,0,0,2,2,2s2-2,2-2c0-4.963,4.037-9,9-9s9,4.037,9,9c0,0,0,2,2,2s2-2,2-2
	C37,15.832,31.168,10,24,10z"/>
</svg>
