<?xml version="1.0" encoding="UTF-8" standalone="no"?>
<svg width="98px" height="98px" viewBox="0 0 98 98" version="1.1" xmlns="http://www.w3.org/2000/svg" xmlns:xlink="http://www.w3.org/1999/xlink" xmlns:sketch="http://www.bohemiancoding.com/sketch/ns">
    <!-- Generator: Sketch 3.3.3 (12072) - http://www.bohemiancoding.com/sketch -->
    <title>solda-pick</title>
    <desc>Created with Sketch.</desc>
    <defs></defs>
    <g id="Home" stroke="none" stroke-width="1" fill="none" fill-rule="evenodd" sketch:type="MSPage">
        <g id="搜尋與精選-01" sketch:type="MSArtboardGroup" transform="translate(-131.000000, -74.000000)">
            <g id="solda-pick" sketch:type="MSLayerGroup" transform="translate(131.000000, 74.000000)">
                <path d="M90.7612013,23.3547532 C82.138025,9.3425008 66.6600415,0 49,0 C45.2004534,0 41.5019126,0.432457329 37.950914,1.2508356 C16.2102223,6.26128806 0,25.7375939 0,49 C0,76.0619527 21.9380473,98 49,98 C76.0619527,98 98,76.0619527 98,49 C98,41.2620109 96.2063573,33.9429495 93.0121526,27.4358965 L82.9825527,28.4900499 L82.9825527,71.1360827 L82.6401717,71.1360827 L82.6452263,71.184174 L73.5703045,72.1379867 L73.1214515,67.8674353 L78.6884779,67.2823173 L78.6884779,28.9413754 L68.2304909,30.0405541 L67.7816379,25.7700027 L90.7612013,23.3547532 Z M29.1119789,51.414447 L29.1119789,42.2883131 L38.666475,41.2840951 L38.217622,37.0135437 L29.1119789,37.9705853 L29.1119789,29.1261693 L38.6335623,26.3958992 L37.4499549,22.2681696 L15.2634081,28.6300595 L16.4470155,32.7577891 L24.8179041,30.3574754 L24.8179041,38.4219108 L24.8179041,38.4219108 L15.2634081,39.4261288 L15.7122611,43.6966802 L24.8179041,42.7396385 L24.8179041,51.8657724 L12.1826529,53.1937909 L12.631506,57.4643423 L24.8179041,56.1835002 L24.8179041,72.4478992 L18.1802994,73.1455395 L18.6291525,77.4160909 L28.6954513,76.3580803 L29.1119789,76.3580803 L29.1119789,55.7321748 L41.457728,54.4345843 L41.008875,50.1640328 L29.1119789,51.414447 Z M59.3651413,54.9639762 L59.3651413,70.5993234 L59.2896616,70.5993234 L59.2976647,70.675468 L50.7565619,71.5731741 L50.3077089,67.3026227 L55.0710665,66.8019736 L55.0710665,56.1952824 L50.0152766,57.6450068 L48.8316692,53.5172772 L55.0710665,51.7281588 L55.0710665,37.529525 L48.3293674,38.2381061 L47.8805143,33.9675547 L55.0710665,33.2117972 L55.0710665,20.6807037 L59.3651413,20.6807037 L59.3651413,32.7604717 L65.5700811,32.1083063 L66.0189341,36.3788577 L59.3651413,37.0781995 L59.3651413,50.4968526 L63.8841718,49.2010415 L65.0677793,53.3287711 L59.3651413,54.9639762 Z" id="Oval-2-Copy-4" fill="#FF4747" sketch:type="MSShapeGroup"></path>
                <path d="M39,82.5805637 L62.5543803,80 L63,84.4194363 L39.4456197,87 L39,82.5805637 L39,82.5805637 Z" id="Rectangle-129" opacity="0.5" fill="#FFFFFF" sketch:type="MSShapeGroup"></path>
            </g>
        </g>
    </g>
</svg>