<?xml version="1.0" encoding="UTF-8" standalone="no"?>
<svg width="24px" height="24px" viewBox="0 0 24 24" version="1.1" xmlns="http://www.w3.org/2000/svg" xmlns:xlink="http://www.w3.org/1999/xlink" xmlns:sketch="http://www.bohemiancoding.com/sketch/ns">
    <!-- Generator: Sketch 3.4.1 (15681) - http://www.bohemiancoding.com/sketch -->
    <title>mood_bad copy</title>
    <desc>Created with Sketch.</desc>
    <defs></defs>
    <g id="Home" stroke="none" stroke-width="1" fill="none" fill-rule="evenodd" sketch:type="MSPage">
        <g id="關於我" sketch:type="MSArtboardGroup" transform="translate(-168.000000, -135.000000)" fill="#FDBE41">
            <path d="M176.478873,146.014085 C176.071985,146.014085 175.719876,145.865416 175.422535,145.568075 C175.125194,145.270734 174.976526,144.918625 174.976526,144.511737 C174.976526,144.104849 175.125194,143.75274 175.422535,143.455399 C175.719876,143.158058 176.071985,143.00939 176.478873,143.00939 C176.885761,143.00939 177.23787,143.158058 177.535211,143.455399 C177.832552,143.75274 177.981221,144.104849 177.981221,144.511737 C177.981221,144.918625 177.832552,145.270734 177.535211,145.568075 C177.23787,145.865416 176.885761,146.014085 176.478873,146.014085 L176.478873,146.014085 Z M183.521127,146.014085 C183.114239,146.014085 182.76213,145.865416 182.464789,145.568075 C182.167448,145.270734 182.018779,144.918625 182.018779,144.511737 C182.018779,144.104849 182.167448,143.75274 182.464789,143.455399 C182.76213,143.158058 183.114239,143.00939 183.521127,143.00939 C183.928015,143.00939 184.280124,143.158058 184.577465,143.455399 C184.874806,143.75274 185.023474,144.104849 185.023474,144.511737 C185.023474,144.918625 184.874806,145.270734 184.577465,145.568075 C184.280124,145.865416 183.928015,146.014085 183.521127,146.014085 L183.521127,146.014085 Z M180,155.028169 C182.190934,155.028169 184.076674,154.23788 185.657277,152.657277 C187.23788,151.076674 188.028169,149.190934 188.028169,147 C188.028169,144.809066 187.23788,142.923326 185.657277,141.342723 C184.076674,139.76212 182.190934,138.971831 180,138.971831 C177.809066,138.971831 175.923326,139.76212 174.342723,141.342723 C172.76212,142.923326 171.971831,144.809066 171.971831,147 C171.971831,149.190934 172.76212,151.076674 174.342723,152.657277 C175.923326,154.23788 177.809066,155.028169 180,155.028169 L180,155.028169 Z M180,137 C182.754317,137 185.109536,137.978081 187.065728,139.934272 C189.021919,141.890464 190,144.245683 190,147 C190,149.754317 189.021919,152.109536 187.065728,154.065728 C185.109536,156.021919 182.754317,157 180,157 C177.245683,157 174.890464,156.021919 172.934272,154.065728 C170.978081,152.109536 170,149.754317 170,147 C170,144.245683 170.978081,141.890464 172.934272,139.934272 C174.890464,137.978081 177.245683,137 180,137 Z M176.510172,149.519562 L183.521127,149.519562 L183.521127,151.522692 L176.510172,151.522692 L176.510172,149.519562 Z" id="mood_bad-copy" sketch:type="MSShapeGroup"></path>
        </g>
    </g>
</svg>