<?xml version="1.0" encoding="utf-8"?>
<!-- Generator: Adobe Illustrator 15.0.0, SVG Export Plug-In . SVG Version: 6.00 Build 0)  -->
<!DOCTYPE svg PUBLIC "-//W3C//DTD SVG 1.1//EN" "http://www.w3.org/Graphics/SVG/1.1/DTD/svg11.dtd">
<svg version="1.1" id="Слой_1" xmlns="http://www.w3.org/2000/svg" xmlns:xlink="http://www.w3.org/1999/xlink" x="0px" y="0px"
	 width="48px" height="48px" viewBox="0 0 48 48" enable-background="new 0 0 48 48" xml:space="preserve">
<path fill="#4FC3F7" d="M22,40c0,1.104-0.896,2-2,2h8c-1.104,0-2-0.896-2-2l0,0c0-1.104,0.896-2,2-2h-8C21.104,38,22,38.896,22,40
	L22,40z"/>
<circle fill="#E91E63" cx="24" cy="12" r="8"/>
<circle fill="#FFE0B2" cx="32" cy="20" r="8"/>
<circle fill="#FF80AB" cx="16" cy="20" r="8"/>
<path fill="#43A047" d="M28,26.241c0,0-1.071-10.074-12-6.458C17.179,30.265,28,26.241,28,26.241z"/>
<path fill="#8BC34A" d="M35,22.474c0,0-0.714,6.295-8,4.037C27.786,19.96,35,22.474,35,22.474z"/>
<path fill="#B3E5FC" d="M37,26c0,7.18-5.82,13-13,13s-13-5.82-13-13H37z"/>
<path fill="#81D4FA" d="M31,44c-0.491-1.696-3.435-3-7-3s-6.509,1.304-7,3H31z"/>
</svg>
