<?xml version="1.0" encoding="utf-8"?>
<!-- Generator: Adobe Illustrator 15.0.0, SVG Export Plug-In . SVG Version: 6.00 Build 0)  -->
<!DOCTYPE svg PUBLIC "-//W3C//DTD SVG 1.1//EN" "http://www.w3.org/Graphics/SVG/1.1/DTD/svg11.dtd">
<svg version="1.1" id="Слой_1" xmlns="http://www.w3.org/2000/svg" xmlns:xlink="http://www.w3.org/1999/xlink" x="0px" y="0px"
	 width="48px" height="48px" viewBox="0 0 48 48" enable-background="new 0 0 48 48" xml:space="preserve">
<g>
	<path fill="#795548" d="M24,12.97c-0.553,0-1-0.447-1-1c0-5.079,3.479-6.897,3.625-6.97l0.887,1.793
		C27.421,6.841,25,8.179,25,11.97C25,12.522,24.553,12.97,24,12.97z"/>
	<path fill="#795548" d="M22.498,12.907c-0.475,0-0.896-0.339-0.983-0.823c-0.412-2.289-3.34-2.19-3.467-2.18l-0.102-1.998
		c1.665-0.07,4.958,0.598,5.537,3.824c0.098,0.543-0.264,1.063-0.808,1.161C22.616,12.902,22.557,12.907,22.498,12.907z"/>
</g>
<path fill="#FFCC80" d="M24,43c-6.114,0-13.865-2.805-16.026-10.647C6.258,31.896,5,30.326,5,28.5c0-1.9,1.332-3.495,3.111-3.899
	c0.869-7.692,7.683-13.6,15.889-13.6c8.209,0,15.025,5.911,15.89,13.607C41.681,25.021,43,26.609,43,28.5
	c0,1.826-1.258,3.396-2.974,3.853C37.865,40.195,30.114,43,24,43z"/>
<g>
	<circle fill="#4E342E" cx="30.001" cy="26.999" r="2.25"/>
	<circle fill="#4E342E" cx="17.999" cy="26.999" r="2.25"/>
</g>
<path fill="#FF5722" d="M24,36.999c-3.106,0-5.04-1.5-5.12-1.564c-0.434-0.343-0.507-0.972-0.164-1.404s0.971-0.507,1.404-0.164
	c0.01,0.007,1.499,1.133,3.88,1.133c2.38,0,3.865-1.122,3.88-1.133c0.435-0.343,1.063-0.269,1.404,0.164
	c0.343,0.434,0.27,1.063-0.164,1.404C29.039,35.499,27.105,36.999,24,36.999z"/>
</svg>
