<?xml version="1.0" encoding="utf-8"?>
<!-- Generator: Adobe Illustrator 15.0.0, SVG Export Plug-In . SVG Version: 6.00 Build 0)  -->
<!DOCTYPE svg PUBLIC "-//W3C//DTD SVG 1.1//EN" "http://www.w3.org/Graphics/SVG/1.1/DTD/svg11.dtd">
<svg version="1.1" id="Слой_1" xmlns="http://www.w3.org/2000/svg" xmlns:xlink="http://www.w3.org/1999/xlink" x="0px" y="0px"
	 width="48px" height="48px" viewBox="0 0 48 48" enable-background="new 0 0 48 48" xml:space="preserve">
<path fill="#E0B990" d="M20,10L9,31v3c0,0,7,8,22,8l10-23C26,19,20.858,11.933,20,10z"/>
<path fill="#FFE0B2" d="M9,32c0,0,9.188,6.25,20.563,4.063L40,14c0,0-10,3-20-3L9,29.996V32z"/>
<rect x="7" y="30" fill="#B78B69" width="2" height="4"/>
<path fill="#FF3D00" d="M7,30h2c3.676,0.934,12.918,3.041,19,0L40,6c0,0-9,4-20,3h-2L7,30z"/>
<polygon fill="#DD2C00" points="7,30 9,30 20,9 18,9 "/>
<g>
	<path fill="#FFCCBC" d="M28.668,20.996l0.928-1.485c0.416-1.369,0.15-1.959-1.082-1.959c-0.617,0-1.881-0.058-1.707-0.629
		c0.176-0.576,0.176-0.635,0.577-0.904c0.375-0.251,0.903-0.504,1.407-1.885c0.732-2.024-0.377-3.032-2.361-2.963
		c-2.188,0.075-2.698,1.6-3.099,2.682c-0.246,0.656,0.093,1.531,0.489,1.834c0.23,0.179-0.031,0.434-0.201,0.893
		c-0.251,0.66-1.494,0.633-2.066,0.858c-1.494,0.595-1.678,0.772-2.436,2.153c-0.65,1.175-1.863,3.383-1.863,3.383
		C19.867,23.165,25.568,23.835,28.668,20.996z"/>
	<path fill="#FFCCBC" d="M19.029,27.318c0.271-0.338,0.822-0.555,1.193-0.219c0.173,0.155,0.125,0.416,0.276,0.586
		c0.163,0.176,0.366,0.181,0.596,0.17c0.559-0.026,0.818-0.551,1.135-0.933c0.232-0.274,0.691-0.952,1.093-0.723
		c0.342,0.196,0.349,0.635,0.764,0.768c0.358,0.115,0.653,0.029,0.971-0.135c0.457-0.237,0.494-0.353,0.711-0.794
		c0.403-0.825,0.811-1.649,1.232-2.511c-0.414,0.25-0.855,0.418-1.295,0.62c-0.297,0.134-0.616,0.253-0.825,0.52
		c-0.185,0.232-0.369,0.441-0.682,0.379c-0.417-0.089-0.059-0.445-0.354-0.571c-0.256-0.107-0.838,0.088-1.096,0.135
		c-0.446,0.076-0.788,0.127-1.037,0.56c-0.233,0.402-0.59,1.204-1.192,0.888c-0.478-0.25,0.198-0.939-0.326-1.195
		c-0.369-0.18-1.064-0.041-1.315,0.262c-0.308,0.377-0.489,1.021-0.979,1.214c-0.576,0.229-0.827-0.255-0.73-0.745
		c0.072-0.354,0.474-0.889-0.106-0.951c-0.487-0.051-1.322-0.393-1.61,0.082c-0.198,0.328-0.349,0.702-0.52,1.049
		c-0.322,0.65-0.647,1.305-0.97,1.953c0.024-0.051,1.021,0.166,1.144,0.154c0.468-0.039,0.706-0.482,1.035-0.75
		c0.273-0.225,0.942-0.432,1.248-0.203c0.372,0.282,0.081,0.864,0.626,1.038C18.532,28.134,18.77,27.652,19.029,27.318z"/>
</g>
</svg>
