<?xml version="1.0" encoding="utf-8"?>
<!-- Generator: Adobe Illustrator 15.0.0, SVG Export Plug-In . SVG Version: 6.00 Build 0)  -->
<!DOCTYPE svg PUBLIC "-//W3C//DTD SVG 1.1//EN" "http://www.w3.org/Graphics/SVG/1.1/DTD/svg11.dtd">
<svg version="1.1" id="Слой_1" xmlns="http://www.w3.org/2000/svg" xmlns:xlink="http://www.w3.org/1999/xlink" x="0px" y="0px"
	 width="48px" height="48px" viewBox="0 0 48 48" enable-background="new 0 0 48 48" xml:space="preserve">
<path fill="#FF9800" d="M27.515,31.216c1.313-1.313,3.883-2.577,4.743-3.94c2.204-3.495-1.49-6.699-3.162-8.371
	c-1.673-1.673-4.877-5.367-8.372-3.163c-1.363,0.86-2.628,3.431-3.94,4.743c-2.105,2.104-6.43,1.485-9.492,4.548
	C5.865,26.458,5,28.094,5,29.817c0,2.863,1.856,5.428,4.863,8.318c2.891,3.006,5.456,4.863,8.318,4.864
	c1.724,0,3.359-0.866,4.785-2.292C26.029,37.646,25.41,33.322,27.515,31.216z"/>
<g>
	<path fill="#5D4037" d="M42.14,10.847c0.197,0.197,0.516,0.197,0.713,0c0.196-0.196,0.196-0.516,0-0.712l-1.068-1.068l-0.713,0.712
		L42.14,10.847z"/>
	<path fill="#5D4037" d="M35.727,7.284l1.069,1.069l0.712-0.714l-1.068-1.068c-0.197-0.196-0.516-0.196-0.713,0
		C35.53,6.769,35.53,7.087,35.727,7.284z"/>
	<path fill="#5D4037" d="M37.152,5.859l1.069,1.068l0.712-0.712l-1.069-1.069c-0.196-0.196-0.515-0.196-0.712,0
		C36.955,5.344,36.955,5.662,37.152,5.859z"/>
	<path fill="#5D4037" d="M41.428,11.56l-1.069-1.068l-0.712,0.712l1.068,1.069c0.197,0.196,0.516,0.196,0.713,0
		C41.624,12.075,41.624,11.757,41.428,11.56z"/>
	<path fill="#5D4037" d="M36.083,9.066l-1.068-1.07c-0.197-0.196-0.516-0.196-0.713,0c-0.196,0.198-0.196,0.516,0,0.714l1.069,1.068
		L36.083,9.066z"/>
	<path fill="#5D4037" d="M40.003,12.984l-1.069-1.068l-0.712,0.712l1.068,1.069c0.197,0.196,0.516,0.196,0.713,0
		C40.199,13.5,40.199,13.182,40.003,12.984z"/>
	
		<rect x="13.67" y="29.291" transform="matrix(0.707 0.7072 -0.7072 0.707 26.6115 -3.6413)" fill="#5D4037" width="8.061" height="2.016"/>
	<path fill="#5D4037" d="M19.126,33.147c-0.394,0.395-1.031,0.395-1.425,0l-2.85-2.85c-0.395-0.394-0.395-1.031,0-1.425l0,0
		c0.394-0.394,1.031-0.394,1.425,0l2.85,2.85C19.521,32.117,19.521,32.754,19.126,33.147L19.126,33.147z"/>
	<polygon fill="#5D4037" points="37.501,13.349 34.658,10.491 22.684,22.466 25.533,25.315 	"/>
</g>
<circle fill="#3E2723" cx="22.683" cy="25.316" r="3.022"/>
<path fill="#C16629" d="M42.496,8.354l-2.85-2.851c-0.395-0.394-1.031-0.394-1.425,0l-4.275,4.275c-0.394,0.394-0.394,1.031,0,1.425
	l2.85,2.85c0.395,0.396,1.031,0.396,1.426,0l4.274-4.274C42.89,9.384,42.89,8.747,42.496,8.354z M36.439,10.847
	c-0.197,0.197-0.516,0.197-0.713,0c-0.196-0.196-0.196-0.516,0-0.712l2.852-2.851c0.196-0.197,0.516-0.197,0.712,0
	c0.197,0.197,0.197,0.516,0,0.712L36.439,10.847z M37.864,12.272c-0.196,0.196-0.515,0.196-0.712,0
	c-0.197-0.197-0.197-0.516,0-0.713l2.851-2.85c0.196-0.198,0.516-0.198,0.712,0c0.197,0.196,0.197,0.516,0,0.712L37.864,12.272z"/>
</svg>
