<?xml version="1.0" encoding="UTF-8" standalone="no"?>
<svg width="20px" height="20px" viewBox="0 0 20 20" version="1.1" xmlns="http://www.w3.org/2000/svg" xmlns:xlink="http://www.w3.org/1999/xlink" xmlns:sketch="http://www.bohemiancoding.com/sketch/ns">
    <!-- Generator: Sketch 3.4 (15575) - http://www.bohemiancoding.com/sketch -->
    <title>twitter</title>
    <desc>Created with Sketch.</desc>
    <defs></defs>
    <g id="Home" stroke="none" stroke-width="1" fill="none" fill-rule="evenodd" sketch:type="MSPage">
        <g id="關於我" sketch:type="MSArtboardGroup" transform="translate(-18.000000, -499.000000)" fill="#000000" opacity="0.87">
            <path d="M36,499 L20,499 C18.9,499 18,499.9 18,501 L18,517 C18,518.1 18.9,519 20,519 L36,519 C37.1,519 38,518.1 38,517 L38,501 C38,499.9 37.1,499 36,499 L36,499 Z M33.6,505.8 L33.6,506.2 C33.6,510 30.7,514.4 25.4,514.4 C23.8,514.4 22.3,513.9 21,513.1 L21.7,513.1 C23,513.1 24.3,512.6 25.3,511.9 C24,511.9 23,511 22.6,509.9 C22.8,509.9 23,510 23.1,510 C23.4,510 23.6,510 23.9,509.9 C22.6,509.6 21.6,508.5 21.6,507.1 L21.6,507.1 C22,507.3 22.4,507.4 22.9,507.5 C22.1,506.8 21.6,506 21.6,505 C21.6,504.5 21.7,504 22,503.6 C23.4,505.3 25.5,506.5 27.9,506.6 C27.9,506.4 27.8,506.2 27.8,505.9 C27.8,504.3 29.1,503 30.7,503 C31.5,503 32.3,503.3 32.8,503.9 C33.5,503.8 34.1,503.5 34.6,503.2 C34.4,503.9 33.9,504.4 33.3,504.8 C33.9,504.7 34.4,504.6 35,504.3 C34.6,504.9 34.1,505.4 33.6,505.8 L33.6,505.8 Z" id="twitter" sketch:type="MSShapeGroup"></path>
        </g>
    </g>
</svg>